<svg xmlns="http://www.w3.org/2000/svg" viewBox="0 0 464 104">
  <rect fill="#23241f" width="464" height="104"/>

  <g fill="#F92672">
    <path d="m100 24v16h-8v8h8v8h-8v8h8v16h8v-16h8v16h8v-16h8v-8h-8v-8h8v-8h-8v-16h-8v16h-8v-16h-8zm8 24h8v8h-8v-8z"/>
    <path d="m140 24v8 40 8h24v-8h-16v-40h16v-8h-24z"/>
    <path d="m348 24v8h16v40h-16v8h24v-8-40-8h-24z"/>
  </g>

  <g fill="#E6DB74">
    <path d="m172 24v8h32v8h-8v8h-8v8h-8v8h-8v8 8h48v-8h-32v-8h8v-8h8v-8h8v-8h8v-8-8h-48z"/>
    <path d="m232 24v16h8v-16h-8zm8 16v8h8v-8h-8zm8 8v8h4v24h8v-24h4v-8h-16zm16 0h8v-8h-8v8zm8-8h8v-16h-8v16z"/>
    <path d="m292 24v56h8v-40h8v-16h-8-8zm16 16v8h8v-8h-8zm8 8v8h8v-8h-8zm8 8v16h8v8h8v-56h-8v32h-8z"/>
  </g>
</svg>
