<svg xmlns="http://www.w3.org/2000/svg" viewBox="0 0 192 104">
  <rect fill="#23241f" width="192" height="104"/>

  <g fill="#F92672">
    <path d="m 24,24 v 16 h -8 v 8 h 8 v 8 h -8 v 8 h 8 v 16 h 8 V 64 h 8 v 16 h 8 V 64 h 8 v -8 h -8 v -8 h 8 V 40 H 48 V 24 H 40 V 40 H 32 V 24 Z m 8,24 h 8 v 8 h -8 z" />
    <path d="m 64,24 v 8 40 8 H 88 V 72 H 72 V 32 h 16 v -8 z" />
    <path d="m 152,24 v 8 h 16 v 40 h -16 v 8 h 24 V 72 32 24 Z" />
  </g>

  <g fill="#E6DB74">
    <path d="m 96,24 v 8 h 32 v 8 h -8 v 8 h -8 v 8 h -8 v 8 h -8 v 8 8 h 48 v -8 h -32 v -8 h 8 v -8 h 8 v -8 h 8 v -8 h 8 v -8 -8 z" />
  </g>
</svg>
