<svg xmlns="http://www.w3.org/2000/svg" viewBox="0 0 192 104">
  <rect fill="#23241f" width="192" height="104"/>

  <g fill="#F92672">
    <rect x="24" y="24" width="8" height="56"/>
    <rect x="40" y="24" width="8" height="56"/>
    <rect x="16" y="40" width="40" height="8"/>
    <rect x="16" y="56" width="40" height="8"/>

    <rect x="64" y="24" width="24" height="8"/>
    <rect x="64" y="32" width="8" height="40"/>
    <rect x="64" y="72" width="24" height="8"/>

    <rect x="152" y="24" width="24" height="8"/>
    <rect x="168" y="32" width="8" height="40"/>
    <rect x="152" y="72" width="24" height="8"/>
  </g>

  <g fill="#E6DB74">
    <rect x="96" y="24" width="48" height="8"/>
    <rect x="128" y="32" width="16" height="8"/>
    <rect x="120" y="40" width="16" height="8"/>
    <rect x="112" y="48" width="16" height="8"/>
    <rect x="104" y="56" width="16" height="8"/>
    <rect x="96" y="64" width="16" height="8"/>
    <rect x="96" y="72" width="48" height="8"/>
  </g>
</svg>
